Coordinates
version=1
nRows=41
nColumns=38
inDegrees=no

Units are S.I. units (second, meters, Newtons, ...)
If the header above contains a line with 'inDegrees', this indicates whether rotational values are in degrees (yes) or radians (no).

endheader
time	pelvis_tilt	pelvis_list	pelvis_rotation	pelvis_tx	pelvis_ty	pelvis_tz	hip_flexion_r	hip_adduction_r	hip_rotation_r	knee_angle_r	ankle_angle_r	subtalar_angle_r	mtp_angle_r	hip_flexion_l	hip_adduction_l	hip_rotation_l	knee_angle_l	ankle_angle_l	subtalar_angle_l	mtp_angle_l	lumbar_extension	lumbar_bending	lumbar_rotation	arm_flex_r	arm_add_r	arm_rot_r	elbow_flex_r	pro_sup_r	wrist_flex_r	wrist_dev_r	arm_flex_l	arm_add_l	arm_rot_l	elbow_flex_l	pro_sup_l	wrist_flex_l	wrist_dev_l
1.99	0.5623	1.56916	0.981261	0.652109	-0.308003	1.03192	-0.0261115	-0.0895955	-0.20646	0.435135	-0.0985082	0	0	-0.133001	-0.0295295	-0.197209	0.129105	-0.342193	0	0	0.0769063	-0.0147946	-0.0403434	0.62357	-0.461896	1.05631	1.35292	1.5708	0	0	0.287596	-0.394346	0.624302	1.43511	1.5708	0	0
2	0.234655	1.56712	1.30876	0.651227	-0.304518	1.0313	-0.0272147	-0.0901047	-0.204304	0.435669	-0.0970266	0	0	-0.132739	-0.0287417	-0.196052	0.132329	-0.338641	0	0	0.0807729	-0.0139311	-0.0403474	0.612429	-0.469274	1.04882	1.36862	1.5708	0	0	0.273635	-0.392784	0.615731	1.44673	1.5708	0	0
2.01	0.157815	1.56505	1.38537	0.650356	-0.300981	1.03063	-0.0283234	-0.0906309	-0.201809	0.436232	-0.0954597	0	0	-0.132837	-0.0280779	-0.195003	0.135288	-0.334962	0	0	0.0835457	-0.0148272	-0.0401757	0.601128	-0.476585	1.04079	1.38479	1.5708	0	0	0.260301	-0.391614	0.607347	1.45992	1.5708	0	0
2.02	0.110747	1.56309	1.43223	0.649502	-0.297402	1.02994	-0.0295917	-0.0911592	-0.199128	0.4373	-0.0936173	0	0	-0.133326	-0.0273081	-0.19348	0.137834	-0.331349	0	0	0.0858445	-0.0160811	-0.0395714	0.589612	-0.484095	1.03226	1.40129	1.5708	0	0	0.24728	-0.39013	0.599033	1.47346	1.5708	0	0
2.03	0.0869237	1.56071	1.45574	0.648648	-0.293809	1.02924	-0.0302151	-0.0916834	-0.196934	0.438032	-0.0916305	0	0	-0.133367	-0.0265834	-0.191781	0.140487	-0.327252	0	0	0.0877516	-0.0177407	-0.0386483	0.57699	-0.491639	1.02169	1.41851	1.5708	0	0	0.233787	-0.388043	0.589637	1.48791	1.5708	0	0
2.04	0.0542688	1.55843	1.4882	0.647795	-0.290181	1.02853	-0.0306853	-0.0926243	-0.194571	0.438807	-0.089942	0	0	-0.133576	-0.0255423	-0.189996	0.143036	-0.323293	0	0	0.0898138	-0.019824	-0.0376441	0.564625	-0.499008	1.01176	1.43492	1.5708	0	0	0.220272	-0.385696	0.580476	1.50212	1.5708	0	0
2.05	0.0345267	1.55608	1.5077	0.646962	-0.286478	1.0278	-0.0312534	-0.0933641	-0.191969	0.439769	-0.0883073	0	0	-0.133976	-0.0244607	-0.18844	0.145305	-0.319501	0	0	0.092061	-0.021947	-0.0366963	0.552478	-0.506147	1.00247	1.45075	1.5708	0	0	0.206134	-0.382852	0.570837	1.51623	1.5708	0	0
2.06	0.0221059	1.55366	1.51981	0.64615	-0.282744	1.02708	-0.0318154	-0.0939652	-0.188875	0.441004	-0.0866272	0	0	-0.13442	-0.0233798	-0.187461	0.14744	-0.315905	0	0	0.0943577	-0.0241102	-0.0356499	0.540174	-0.513144	0.993169	1.46623	1.5708	0	0	0.191697	-0.379184	0.560828	1.53002	1.5708	0	0
2.07	0.0272597	1.54921	1.51378	0.64527	-0.27897	1.02629	-0.0297973	-0.0942072	-0.184	0.442759	-0.0845734	0	0	-0.132383	-0.0224894	-0.187482	0.150335	-0.310947	0	0	0.0901033	-0.0294393	-0.0401276	0.527032	-0.517549	0.97766	1.48783	1.5708	0	0	0.166755	-0.373948	0.53366	1.55749	1.5708	0	0
2.08	0.0140873	1.54795	1.52709	0.644427	-0.2754	1.02572	-0.0311961	-0.0950325	-0.181094	0.444414	-0.0835541	0	0	-0.133372	-0.0211766	-0.18672	0.153313	-0.308113	0	0	0.0959663	-0.0287344	-0.0386974	0.517382	-0.523723	0.973755	1.49725	1.5708	0	0	0.154699	-0.368443	0.527193	1.56318	1.5708	0	0
2.09	0.0156448	1.54503	1.52532	0.643526	-0.271769	1.02505	-0.0308286	-0.0953768	-0.177259	0.445779	-0.0825231	0	0	-0.132552	-0.0201596	-0.186567	0.156625	-0.304536	0	0	0.097899	-0.0307521	-0.0398765	0.507222	-0.529289	0.966551	1.51112	1.5708	0	0	0.138952	-0.363418	0.514651	1.57708	1.5708	0	0
2.1	0.0194261	1.53993	1.52141	0.642585	-0.268051	1.02417	-0.0274222	-0.0957915	-0.173386	0.449349	-0.0804603	0	0	-0.128685	-0.0195977	-0.187877	0.161812	-0.297001	0	0	0.0947054	-0.0313184	-0.0663583	0.524028	-0.52115	0.989085	1.51894	1.5708	0	0	0.0879715	-0.353173	0.45179	1.61388	1.5708	0	0
2.11	0.0191389	1.53598	1.52206	0.641623	-0.264406	1.02337	-0.0255348	-0.0964504	-0.170923	0.452445	-0.0793348	0	0	-0.126501	-0.0188392	-0.188321	0.165559	-0.293393	0	0	0.094988	-0.0324916	-0.0806013	0.529028	-0.519787	0.999319	1.52808	1.5708	0	0	0.0559301	-0.343381	0.41618	1.63698	1.5708	0	0
2.12	0.0244208	1.53178	1.51723	0.640651	-0.260811	1.02257	-0.0237467	-0.0964761	-0.167833	0.454279	-0.0780758	0	0	-0.123897	-0.0184414	-0.189098	0.169546	-0.289775	0	0	0.095227	-0.0332163	-0.09748	0.536934	-0.516742	1.01284	1.53561	1.5708	0	0	0.0210638	-0.330686	0.376442	1.66101	1.5708	0	0
2.13	0.0315642	1.52736	1.51066	0.639656	-0.257221	1.02175	-0.0219852	-0.0961214	-0.164668	0.455788	-0.076767	0	0	-0.121272	-0.0181702	-0.189591	0.173009	-0.286582	0	0	0.0956592	-0.0336959	-0.115681	0.546034	-0.512782	1.02777	1.54219	1.5708	0	0	-0.0144325	-0.315564	0.335886	1.685	1.5708	0	0
2.14	0.0384739	1.52269	1.50414	0.638634	-0.253647	1.02097	-0.0198116	-0.0958025	-0.161448	0.45778	-0.075857	0	0	-0.11874	-0.0178653	-0.189946	0.175601	-0.283699	0	0	0.0954033	-0.0336801	-0.137843	0.560411	-0.506318	1.0488	1.54669	1.5708	0	0	-0.0539306	-0.29673	0.289404	1.71118	1.5708	0	0
2.15	0.0429486	1.51653	1.50004	0.63751	-0.250073	1.02021	-0.0157904	-0.0956804	-0.156993	0.459844	-0.0756464	0	0	-0.114778	-0.0173632	-0.189236	0.177636	-0.281317	0	0	0.0948248	-0.0331833	-0.163616	0.577325	-0.497696	1.07215	1.5507	1.5708	0	0	-0.0956261	-0.275439	0.240238	1.73961	1.5708	0	0
2.16	0.0396893	1.51239	1.50406	0.636378	-0.246599	1.01952	-0.0140503	-0.096092	-0.152348	0.461891	-0.0750646	0	0	-0.113129	-0.0163466	-0.187861	0.179119	-0.279491	0	0	0.0974366	-0.0349133	-0.175214	0.580416	-0.49695	1.08026	1.55611	1.5708	0	0	-0.119269	-0.258487	0.21496	1.75463	1.5708	0	0
2.17	0.0370243	1.50842	1.50732	0.635266	-0.243203	1.0189	-0.012109	-0.0964871	-0.14785	0.464259	-0.0747624	0	0	-0.111815	-0.01532	-0.186172	0.180191	-0.278285	0	0	0.0999565	-0.0365058	-0.183716	0.580138	-0.497817	1.08355	1.56233	1.5708	0	0	-0.138495	-0.243169	0.195234	1.76706	1.5708	0	0
2.18	0.0355474	1.50511	1.5094	0.634111	-0.239952	1.01836	-0.0108855	-0.0967651	-0.143327	0.465826	-0.0746843	0	0	-0.111304	-0.0142363	-0.183964	0.180756	-0.27725	0	0	0.102728	-0.037958	-0.187279	0.576012	-0.50171	1.08189	1.56958	1.5708	0	0	-0.151196	-0.230066	0.183542	1.77485	1.5708	0	0
2.19	0.0343598	1.50201	1.51087	0.632986	-0.236833	1.0179	-0.00925117	-0.0970381	-0.138155	0.469013	-0.074618	0	0	-0.111247	-0.0130498	-0.181181	0.180525	-0.276469	0	0	0.108609	-0.0351882	-0.187606	0.572773	-0.507267	1.0822	1.57568	1.5708	0	0	-0.15897	-0.220472	0.178836	1.77607	1.5708	0	0
2.2	0.0329222	1.50029	1.51269	0.631887	-0.233875	1.0175	-0.00891049	-0.0975734	-0.133438	0.472475	-0.0747562	0	0	-0.112624	-0.011874	-0.178916	0.180079	-0.276348	0	0	0.116174	-0.0306633	-0.186407	0.572485	-0.513147	1.08693	1.57895	1.5708	0	0	-0.162865	-0.213749	0.178536	1.77249	1.5708	0	0
2.21	0.028315	1.49888	1.51782	0.630794	-0.231081	1.01706	-0.00862758	-0.0984967	-0.128292	0.475835	-0.0745355	0	0	-0.114245	-0.0104354	-0.176531	0.179468	-0.275861	0	0	0.124848	-0.0258183	-0.183757	0.572377	-0.519555	1.09202	1.58138	1.5708	0	0	-0.163901	-0.208637	0.181325	1.76622	1.5708	0	0
2.22	0.0186697	1.49812	1.5279	0.629747	-0.228485	1.01663	-0.00880633	-0.0992599	-0.122511	0.479161	-0.0732649	0	0	-0.116532	-0.00848188	-0.173704	0.178484	-0.275074	0	0	0.134754	-0.0240855	-0.158572	0.542581	-0.539131	1.06086	1.59398	1.5708	0	0	-0.142826	-0.211181	0.213806	1.74668	1.5708	0	0
2.23	0.00471697	1.49854	1.54308	0.628697	-0.225986	1.01616	-0.0096523	-0.100733	-0.118843	0.483946	-0.0718953	0	0	-0.119753	-0.00641711	-0.170979	0.178103	-0.274143	0	0	0.142839	-0.0197684	-0.152424	0.540676	-0.547162	1.0635	1.59624	1.5708	0	0	-0.13762	-0.20914	0.223008	1.73623	1.5708	0	0
2.24	0.00768115	1.49622	1.54071	0.627411	-0.223348	1.01547	-0.00705681	-0.101445	-0.114264	0.489433	-0.0711705	0	0	-0.12037	-0.00540468	-0.169544	0.17755	-0.273003	0	0	0.138056	-0.0240314	-0.156462	0.535911	-0.550267	1.05525	1.60595	1.5708	0	0	-0.143559	-0.202928	0.21697	1.74757	1.5708	0	0
2.25	0.00261162	1.49416	1.54663	0.626191	-0.220922	1.01477	-0.00395851	-0.102884	-0.109181	0.49661	-0.0702942	0	0	-0.121001	-0.00387814	-0.167496	0.176992	-0.271655	0	0	0.134781	-0.0262159	-0.160664	0.532902	-0.552331	1.04889	1.61374	1.5708	0	0	-0.149001	-0.196756	0.210315	1.75614	1.5708	0	0
2.26	-0.00318719	1.49234	1.55333	0.624982	-0.218657	1.01407	-0.000589581	-0.103914	-0.10396	0.504723	-0.0688879	0	0	-0.121767	-0.00235613	-0.165766	0.1763	-0.270196	0	0	0.131492	-0.028315	-0.164538	0.5313	-0.554172	1.0438	1.62021	1.5708	0	0	-0.152912	-0.191812	0.204966	1.76365	1.5708	0	0
2.27	-0.0079067	1.49086	1.55894	0.623801	-0.216543	1.01339	0.0027079	-0.105124	-0.0978684	0.512698	-0.0676892	0	0	-0.122716	-0.000988836	-0.164542	0.175688	-0.268806	0	0	0.128224	-0.0300764	-0.167628	0.530714	-0.556107	1.03933	1.62565	1.5708	0	0	-0.154429	-0.188918	0.202124	1.76971	1.5708	0	0
2.28	-0.0109077	1.48982	1.56264	0.622666	-0.21457	1.01276	0.00593657	-0.105469	-0.0912529	0.521024	-0.0665777	0	0	-0.124023	0.000219414	-0.163759	0.175084	-0.26759	0	0	0.124887	-0.0314243	-0.169618	0.530605	-0.558168	1.03484	1.63036	1.5708	0	0	-0.153473	-0.187645	0.201582	1.77413	1.5708	0	0
2.29	-0.0144877	1.48895	1.56654	0.621591	-0.212724	1.01214	0.00998149	-0.105511	-0.0840391	0.531034	-0.0649293	0	0	-0.125502	0.00156877	-0.16321	0.174286	-0.266155	0	0	0.121617	-0.0328576	-0.169602	0.528762	-0.560752	1.02773	1.63517	1.5708	0	0	-0.149705	-0.187567	0.203752	1.77675	1.5708	0	0
2.3	-0.0210706	1.48776	1.57271	0.620562	-0.211042	1.0115	0.0156472	-0.106361	-0.0745017	0.543188	-0.0628191	0	0	-0.126534	0.00339843	-0.16265	0.173389	-0.264348	0	0	0.11907	-0.0348186	-0.165244	0.52252	-0.565142	1.01497	1.64097	1.5708	0	0	-0.14145	-0.188879	0.21104	1.7764	1.5708	0	0
2.31	-0.0378267	1.48751	1.58868	0.619767	-0.209578	1.01093	0.0210568	-0.107572	-0.0644291	0.556064	-0.0608678	0	0	-0.128128	0.0059074	-0.162108	0.17299	-0.262933	0	0	0.119578	-0.0308677	-0.162696	0.525603	-0.567362	1.01363	1.642	1.5708	0	0	-0.132188	-0.193554	0.218975	1.77118	1.5708	0	0
2.32	-0.0315717	1.48542	1.58023	0.61872	-0.208051	1.01021	0.0294319	-0.106816	-0.0527494	0.570226	-0.0594046	0	0	-0.127912	0.00687083	-0.163978	0.172787	-0.260719	0	0	0.114038	-0.0373481	-0.157817	0.517187	-0.571236	0.995987	1.64759	1.5708	0	0	-0.123555	-0.192727	0.22494	1.77441	1.5708	0	0
2.33	-0.0317948	1.48411	1.57852	0.617805	-0.206675	1.00956	0.0374947	-0.106381	-0.0414742	0.585163	-0.0583005	0	0	-0.128181	0.00811771	-0.165233	0.173072	-0.258673	0	0	0.110401	-0.0388006	-0.15583	0.516091	-0.572498	0.986907	1.64931	1.5708	0	0	-0.115626	-0.193805	0.229584	1.77469	1.5708	0	0
2.34	-0.0317479	1.48283	1.57625	0.616912	-0.205424	1.00897	0.0468418	-0.105822	-0.0294786	0.602689	-0.0572077	0	0	-0.12852	0.00938154	-0.16624	0.172937	-0.256624	0	0	0.107527	-0.0398892	-0.153525	0.517014	-0.573441	0.980404	1.64896	1.5708	0	0	-0.106759	-0.195336	0.234928	1.77325	1.5708	0	0
2.35	-0.0289548	1.48211	1.57145	0.615998	-0.204243	1.00846	0.0560662	-0.104825	-0.0175928	0.620871	-0.0568513	0	0	-0.129748	0.0103738	-0.167046	0.171941	-0.25515	0	0	0.104589	-0.0408409	-0.150943	0.518876	-0.574368	0.974968	1.64706	1.5708	0	0	-0.0965986	-0.197568	0.241511	1.77034	1.5708	0	0
2.36	-0.0222402	1.48176	1.56283	0.615081	-0.203141	1.00802	0.0655279	-0.103284	-0.0055306	0.639748	-0.0574907	0	0	-0.131269	0.010875	-0.168637	0.171	-0.253928	0	0	0.101663	-0.0416147	-0.147323	0.52037	-0.575668	0.968923	1.64444	1.5708	0	0	-0.0849212	-0.199963	0.249477	1.76578	1.5708	0	0
2.37	-0.0134491	1.48152	1.55233	0.614153	-0.202135	1.00765	0.0755309	-0.101439	0.00688868	0.659906	-0.0592112	0	0	-0.132645	0.0110746	-0.170545	0.170462	-0.252701	0	0	0.0993688	-0.0425505	-0.140588	0.518636	-0.578508	0.959145	1.64193	1.5708	0	0	-0.0690849	-0.203135	0.262334	1.75747	1.5708	0	0
2.38	-0.0045004	1.48149	1.54172	0.613245	-0.201223	1.00741	0.0860041	-0.0993536	0.0200941	0.681233	-0.0618213	0	0	-0.134369	0.0113169	-0.171931	0.169427	-0.251865	0	0	0.0974043	-0.0435815	-0.131353	0.514433	-0.582336	0.946301	1.63923	1.5708	0	0	-0.0490973	-0.206068	0.279137	1.74549	1.5708	0	0
2.39	-0.0116309	1.48318	1.54762	0.612651	-0.200586	1.00739	0.0957912	-0.0979438	0.0344182	0.704567	-0.0651384	0	0	-0.137771	0.0128039	-0.171349	0.167822	-0.252338	0	0	0.102423	-0.0309115	-0.132925	0.540456	-0.579425	0.97207	1.62331	1.5708	0	0	-0.033552	-0.216109	0.290468	1.72748	1.5708	0	0
